<svg width="38" height="38" viewBox="0 0 38 38" fill="none" xmlns="http://www.w3.org/2000/svg">
<rect x="0.416667" y="0.416667" width="37.1667" height="37.1667" rx="18.5833" fill="#001A01"/>
<rect x="0.416667" y="0.416667" width="37.1667" height="37.1667" rx="18.5833" stroke="#A1A1A1" stroke-width="0.833333"/>
<g clip-path="url(#clip0_136_917)">
<path d="M24.3335 8.3335H13.6668C10.7213 8.3335 8.3335 10.7213 8.3335 13.6668V24.3335C8.3335 27.279 10.7213 29.6668 13.6668 29.6668H24.3335C27.279 29.6668 29.6668 27.279 29.6668 24.3335V13.6668C29.6668 10.7213 27.279 8.3335 24.3335 8.3335Z" stroke="#A1A1A1" stroke-width="1.33333" stroke-linecap="round" stroke-linejoin="round"/>
<path d="M19 23C21.2091 23 23 21.2091 23 19C23 16.7909 21.2091 15 19 15C16.7909 15 15 16.7909 15 19C15 21.2091 16.7909 23 19 23Z" stroke="#A1A1A1" stroke-width="1.33333" stroke-linecap="round" stroke-linejoin="round"/>
<path d="M25 13V13.001" stroke="#A1A1A1" stroke-width="1.33333" stroke-linecap="round" stroke-linejoin="round"/>
</g>
<defs>
<clipPath id="clip0_136_917">
<rect width="32" height="32" fill="white" transform="translate(3 3)"/>
</clipPath>
</defs>
</svg>
