<svg width="38" height="38" viewBox="0 0 38 38" fill="none" xmlns="http://www.w3.org/2000/svg">
<rect x="0.416667" y="0.416667" width="37.1667" height="37.1667" rx="18.5833" fill="#001A01"/>
<rect x="0.416667" y="0.416667" width="37.1667" height="37.1667" rx="18.5833" stroke="#A1A1A1" stroke-width="0.833333"/>
<g clip-path="url(#clip0_136_928)">
<path d="M14.9998 19.0002C13.945 19.0002 12.9139 19.313 12.0368 19.899C11.1597 20.485 10.4761 21.318 10.0725 22.2925C9.66881 23.2671 9.5632 24.3394 9.76898 25.374C9.97477 26.4085 10.4827 27.3589 11.2286 28.1047C11.9745 28.8506 12.9248 29.3586 13.9594 29.5644C14.9939 29.7701 16.0663 29.6645 17.0408 29.2609C18.0154 28.8572 18.8483 28.1736 19.4343 27.2965C20.0204 26.4195 20.3332 25.3883 20.3332 24.3335V8.3335C20.3332 10.1016 21.0356 11.7973 22.2858 13.0475C23.536 14.2978 25.2317 15.0002 26.9998 15.0002" stroke="#A1A1A1" stroke-width="1.33333" stroke-linecap="round" stroke-linejoin="round"/>
</g>
<defs>
<clipPath id="clip0_136_928">
<rect width="32" height="32" fill="white" transform="translate(3 3)"/>
</clipPath>
</defs>
</svg>
